<mxfile host="app.diagrams.net" agent="Mozilla/5.0 (Windows NT 10.0; Win64; x64) AppleWebKit/537.36 (KHTML, like Gecko) Chrome/141.0.0.0 Safari/537.36" version="28.2.5">
  <diagram name="PÃ¡gina-1" id="rYaQr-xI2JrS_xAo6EkZ">
    <mxGraphModel grid="1" page="1" gridSize="10" guides="1" tooltips="1" connect="1" arrows="1" fold="1" pageScale="1" pageWidth="827" pageHeight="1169" math="0" shadow="0">
      <root>
        <mxCell id="sygj7q8nY9JdKc7Y1mPy-0" />
        <mxCell id="sygj7q8nY9JdKc7Y1mPy-1" parent="sygj7q8nY9JdKc7Y1mPy-0" />
        <mxCell id="JvgiVcvzuk2-Qw33OQM9-0" value="Produto" style="swimlane;fontStyle=1;align=center;verticalAlign=top;childLayout=stackLayout;horizontal=1;startSize=26;horizontalStack=0;resizeParent=1;resizeParentMax=0;resizeLast=0;collapsible=1;marginBottom=0;whiteSpace=wrap;html=1;" vertex="1" parent="sygj7q8nY9JdKc7Y1mPy-1">
          <mxGeometry x="310" y="380" width="160" height="104" as="geometry" />
        </mxCell>
        <mxCell id="JvgiVcvzuk2-Qw33OQM9-1" value="+nome: String&lt;div&gt;+preco: doble&lt;/div&gt;" style="text;strokeColor=none;fillColor=none;align=left;verticalAlign=top;spacingLeft=4;spacingRight=4;overflow=hidden;rotatable=0;points=[[0,0.5],[1,0.5]];portConstraint=eastwest;whiteSpace=wrap;html=1;" vertex="1" parent="JvgiVcvzuk2-Qw33OQM9-0">
          <mxGeometry y="26" width="160" height="44" as="geometry" />
        </mxCell>
        <mxCell id="JvgiVcvzuk2-Qw33OQM9-2" value="" style="line;strokeWidth=1;fillColor=none;align=left;verticalAlign=middle;spacingTop=-1;spacingLeft=3;spacingRight=3;rotatable=0;labelPosition=right;points=[];portConstraint=eastwest;strokeColor=inherit;" vertex="1" parent="JvgiVcvzuk2-Qw33OQM9-0">
          <mxGeometry y="70" width="160" height="8" as="geometry" />
        </mxCell>
        <mxCell id="JvgiVcvzuk2-Qw33OQM9-3" value="+calcularDesconto()" style="text;strokeColor=none;fillColor=none;align=left;verticalAlign=top;spacingLeft=4;spacingRight=4;overflow=hidden;rotatable=0;points=[[0,0.5],[1,0.5]];portConstraint=eastwest;whiteSpace=wrap;html=1;" vertex="1" parent="JvgiVcvzuk2-Qw33OQM9-0">
          <mxGeometry y="78" width="160" height="26" as="geometry" />
        </mxCell>
        <mxCell id="JvgiVcvzuk2-Qw33OQM9-4" value="ProdutoEletronico" style="swimlane;fontStyle=1;align=center;verticalAlign=top;childLayout=stackLayout;horizontal=1;startSize=26;horizontalStack=0;resizeParent=1;resizeParentMax=0;resizeLast=0;collapsible=1;marginBottom=0;whiteSpace=wrap;html=1;" vertex="1" parent="sygj7q8nY9JdKc7Y1mPy-1">
          <mxGeometry x="210" y="525" width="160" height="60" as="geometry" />
        </mxCell>
        <mxCell id="JvgiVcvzuk2-Qw33OQM9-6" value="" style="line;strokeWidth=1;fillColor=none;align=left;verticalAlign=middle;spacingTop=-1;spacingLeft=3;spacingRight=3;rotatable=0;labelPosition=right;points=[];portConstraint=eastwest;strokeColor=inherit;" vertex="1" parent="JvgiVcvzuk2-Qw33OQM9-4">
          <mxGeometry y="26" width="160" height="8" as="geometry" />
        </mxCell>
        <mxCell id="JvgiVcvzuk2-Qw33OQM9-7" value="+calcularDesconto()" style="text;strokeColor=none;fillColor=none;align=left;verticalAlign=top;spacingLeft=4;spacingRight=4;overflow=hidden;rotatable=0;points=[[0,0.5],[1,0.5]];portConstraint=eastwest;whiteSpace=wrap;html=1;" vertex="1" parent="JvgiVcvzuk2-Qw33OQM9-4">
          <mxGeometry y="34" width="160" height="26" as="geometry" />
        </mxCell>
        <mxCell id="JvgiVcvzuk2-Qw33OQM9-8" value="ProdutoVestuario" style="swimlane;fontStyle=1;align=center;verticalAlign=top;childLayout=stackLayout;horizontal=1;startSize=26;horizontalStack=0;resizeParent=1;resizeParentMax=0;resizeLast=0;collapsible=1;marginBottom=0;whiteSpace=wrap;html=1;" vertex="1" parent="sygj7q8nY9JdKc7Y1mPy-1">
          <mxGeometry x="380" y="525" width="160" height="60" as="geometry" />
        </mxCell>
        <mxCell id="JvgiVcvzuk2-Qw33OQM9-10" value="" style="line;strokeWidth=1;fillColor=none;align=left;verticalAlign=middle;spacingTop=-1;spacingLeft=3;spacingRight=3;rotatable=0;labelPosition=right;points=[];portConstraint=eastwest;strokeColor=inherit;" vertex="1" parent="JvgiVcvzuk2-Qw33OQM9-8">
          <mxGeometry y="26" width="160" height="8" as="geometry" />
        </mxCell>
        <mxCell id="JvgiVcvzuk2-Qw33OQM9-11" value="+calcularDesconto()" style="text;strokeColor=none;fillColor=none;align=left;verticalAlign=top;spacingLeft=4;spacingRight=4;overflow=hidden;rotatable=0;points=[[0,0.5],[1,0.5]];portConstraint=eastwest;whiteSpace=wrap;html=1;" vertex="1" parent="JvgiVcvzuk2-Qw33OQM9-8">
          <mxGeometry y="34" width="160" height="26" as="geometry" />
        </mxCell>
        <mxCell id="JvgiVcvzuk2-Qw33OQM9-15" value="" style="endArrow=block;dashed=1;endFill=0;endSize=12;html=1;rounded=0;exitX=0.5;exitY=0;exitDx=0;exitDy=0;" edge="1" parent="sygj7q8nY9JdKc7Y1mPy-1" source="JvgiVcvzuk2-Qw33OQM9-8">
          <mxGeometry width="160" relative="1" as="geometry">
            <mxPoint x="380" y="545" as="sourcePoint" />
            <mxPoint x="460" y="485" as="targetPoint" />
          </mxGeometry>
        </mxCell>
        <mxCell id="JvgiVcvzuk2-Qw33OQM9-16" value="" style="endArrow=block;dashed=1;endFill=0;endSize=12;html=1;rounded=0;exitX=0.5;exitY=0;exitDx=0;exitDy=0;" edge="1" parent="sygj7q8nY9JdKc7Y1mPy-1">
          <mxGeometry width="160" relative="1" as="geometry">
            <mxPoint x="330" y="525" as="sourcePoint" />
            <mxPoint x="330" y="485" as="targetPoint" />
          </mxGeometry>
        </mxCell>
        <mxCell id="JvgiVcvzuk2-Qw33OQM9-17" value="Carrinho" style="swimlane;fontStyle=1;align=center;verticalAlign=top;childLayout=stackLayout;horizontal=1;startSize=26;horizontalStack=0;resizeParent=1;resizeParentMax=0;resizeLast=0;collapsible=1;marginBottom=0;whiteSpace=wrap;html=1;" vertex="1" parent="sygj7q8nY9JdKc7Y1mPy-1">
          <mxGeometry x="440" y="240" width="160" height="84" as="geometry" />
        </mxCell>
        <mxCell id="JvgiVcvzuk2-Qw33OQM9-18" value="+produtos: List" style="text;strokeColor=none;fillColor=none;align=left;verticalAlign=top;spacingLeft=4;spacingRight=4;overflow=hidden;rotatable=0;points=[[0,0.5],[1,0.5]];portConstraint=eastwest;whiteSpace=wrap;html=1;" vertex="1" parent="JvgiVcvzuk2-Qw33OQM9-17">
          <mxGeometry y="26" width="160" height="24" as="geometry" />
        </mxCell>
        <mxCell id="JvgiVcvzuk2-Qw33OQM9-19" value="" style="line;strokeWidth=1;fillColor=none;align=left;verticalAlign=middle;spacingTop=-1;spacingLeft=3;spacingRight=3;rotatable=0;labelPosition=right;points=[];portConstraint=eastwest;strokeColor=inherit;" vertex="1" parent="JvgiVcvzuk2-Qw33OQM9-17">
          <mxGeometry y="50" width="160" height="8" as="geometry" />
        </mxCell>
        <mxCell id="JvgiVcvzuk2-Qw33OQM9-20" value="+adicionarProduto()" style="text;strokeColor=none;fillColor=none;align=left;verticalAlign=top;spacingLeft=4;spacingRight=4;overflow=hidden;rotatable=0;points=[[0,0.5],[1,0.5]];portConstraint=eastwest;whiteSpace=wrap;html=1;" vertex="1" parent="JvgiVcvzuk2-Qw33OQM9-17">
          <mxGeometry y="58" width="160" height="26" as="geometry" />
        </mxCell>
        <mxCell id="JvgiVcvzuk2-Qw33OQM9-21" value="" style="endArrow=diamondThin;endFill=0;endSize=24;html=1;rounded=0;exitX=1;exitY=0;exitDx=0;exitDy=0;entryX=0.197;entryY=1.053;entryDx=0;entryDy=0;entryPerimeter=0;" edge="1" parent="sygj7q8nY9JdKc7Y1mPy-1" source="JvgiVcvzuk2-Qw33OQM9-0" target="JvgiVcvzuk2-Qw33OQM9-20">
          <mxGeometry width="160" relative="1" as="geometry">
            <mxPoint x="400" y="340" as="sourcePoint" />
            <mxPoint x="560" y="340" as="targetPoint" />
          </mxGeometry>
        </mxCell>
        <mxCell id="JvgiVcvzuk2-Qw33OQM9-22" value="Pedido" style="swimlane;fontStyle=1;align=center;verticalAlign=top;childLayout=stackLayout;horizontal=1;startSize=26;horizontalStack=0;resizeParent=1;resizeParentMax=0;resizeLast=0;collapsible=1;marginBottom=0;whiteSpace=wrap;html=1;" vertex="1" parent="sygj7q8nY9JdKc7Y1mPy-1">
          <mxGeometry x="250" y="220" width="160" height="104" as="geometry" />
        </mxCell>
        <mxCell id="JvgiVcvzuk2-Qw33OQM9-23" value="+id: int&lt;div&gt;+data: Date&lt;/div&gt;" style="text;strokeColor=none;fillColor=none;align=left;verticalAlign=top;spacingLeft=4;spacingRight=4;overflow=hidden;rotatable=0;points=[[0,0.5],[1,0.5]];portConstraint=eastwest;whiteSpace=wrap;html=1;" vertex="1" parent="JvgiVcvzuk2-Qw33OQM9-22">
          <mxGeometry y="26" width="160" height="44" as="geometry" />
        </mxCell>
        <mxCell id="JvgiVcvzuk2-Qw33OQM9-24" value="" style="line;strokeWidth=1;fillColor=none;align=left;verticalAlign=middle;spacingTop=-1;spacingLeft=3;spacingRight=3;rotatable=0;labelPosition=right;points=[];portConstraint=eastwest;strokeColor=inherit;" vertex="1" parent="JvgiVcvzuk2-Qw33OQM9-22">
          <mxGeometry y="70" width="160" height="8" as="geometry" />
        </mxCell>
        <mxCell id="JvgiVcvzuk2-Qw33OQM9-25" value="+adicionarProduto(Cliente)" style="text;strokeColor=none;fillColor=none;align=left;verticalAlign=top;spacingLeft=4;spacingRight=4;overflow=hidden;rotatable=0;points=[[0,0.5],[1,0.5]];portConstraint=eastwest;whiteSpace=wrap;html=1;" vertex="1" parent="JvgiVcvzuk2-Qw33OQM9-22">
          <mxGeometry y="78" width="160" height="26" as="geometry" />
        </mxCell>
        <mxCell id="JvgiVcvzuk2-Qw33OQM9-26" value="" style="endArrow=diamondThin;endFill=0;endSize=24;html=1;rounded=0;exitX=0.25;exitY=0;exitDx=0;exitDy=0;entryX=0.626;entryY=0.973;entryDx=0;entryDy=0;entryPerimeter=0;" edge="1" parent="sygj7q8nY9JdKc7Y1mPy-1" source="JvgiVcvzuk2-Qw33OQM9-0" target="JvgiVcvzuk2-Qw33OQM9-25">
          <mxGeometry width="160" relative="1" as="geometry">
            <mxPoint x="220" y="370" as="sourcePoint" />
            <mxPoint x="350" y="330" as="targetPoint" />
          </mxGeometry>
        </mxCell>
        <mxCell id="JvgiVcvzuk2-Qw33OQM9-27" value="Cliente" style="swimlane;fontStyle=1;align=center;verticalAlign=top;childLayout=stackLayout;horizontal=1;startSize=26;horizontalStack=0;resizeParent=1;resizeParentMax=0;resizeLast=0;collapsible=1;marginBottom=0;whiteSpace=wrap;html=1;" vertex="1" parent="sygj7q8nY9JdKc7Y1mPy-1">
          <mxGeometry x="250" y="100" width="160" height="78" as="geometry" />
        </mxCell>
        <mxCell id="JvgiVcvzuk2-Qw33OQM9-28" value="+nome: String&lt;div&gt;+email: String&lt;/div&gt;" style="text;strokeColor=none;fillColor=none;align=left;verticalAlign=top;spacingLeft=4;spacingRight=4;overflow=hidden;rotatable=0;points=[[0,0.5],[1,0.5]];portConstraint=eastwest;whiteSpace=wrap;html=1;" vertex="1" parent="JvgiVcvzuk2-Qw33OQM9-27">
          <mxGeometry y="26" width="160" height="44" as="geometry" />
        </mxCell>
        <mxCell id="JvgiVcvzuk2-Qw33OQM9-29" value="" style="line;strokeWidth=1;fillColor=none;align=left;verticalAlign=middle;spacingTop=-1;spacingLeft=3;spacingRight=3;rotatable=0;labelPosition=right;points=[];portConstraint=eastwest;strokeColor=inherit;" vertex="1" parent="JvgiVcvzuk2-Qw33OQM9-27">
          <mxGeometry y="70" width="160" height="8" as="geometry" />
        </mxCell>
        <mxCell id="JvgiVcvzuk2-Qw33OQM9-31" value="" style="endArrow=open;endFill=1;endSize=12;html=1;rounded=0;exitX=0.75;exitY=0;exitDx=0;exitDy=0;entryX=0.75;entryY=1;entryDx=0;entryDy=0;" edge="1" parent="sygj7q8nY9JdKc7Y1mPy-1" source="JvgiVcvzuk2-Qw33OQM9-22" target="JvgiVcvzuk2-Qw33OQM9-27">
          <mxGeometry width="160" relative="1" as="geometry">
            <mxPoint x="400" y="270" as="sourcePoint" />
            <mxPoint x="560" y="270" as="targetPoint" />
          </mxGeometry>
        </mxCell>
        <mxCell id="JvgiVcvzuk2-Qw33OQM9-32" value="Pagamento" style="swimlane;fontStyle=1;align=center;verticalAlign=top;childLayout=stackLayout;horizontal=1;startSize=26;horizontalStack=0;resizeParent=1;resizeParentMax=0;resizeLast=0;collapsible=1;marginBottom=0;whiteSpace=wrap;html=1;" vertex="1" parent="sygj7q8nY9JdKc7Y1mPy-1">
          <mxGeometry x="30" y="220" width="160" height="78" as="geometry" />
        </mxCell>
        <mxCell id="JvgiVcvzuk2-Qw33OQM9-33" value="Pedido: pedido" style="text;strokeColor=none;fillColor=none;align=left;verticalAlign=top;spacingLeft=4;spacingRight=4;overflow=hidden;rotatable=0;points=[[0,0.5],[1,0.5]];portConstraint=eastwest;whiteSpace=wrap;html=1;" vertex="1" parent="JvgiVcvzuk2-Qw33OQM9-32">
          <mxGeometry y="26" width="160" height="44" as="geometry" />
        </mxCell>
        <mxCell id="JvgiVcvzuk2-Qw33OQM9-34" value="" style="line;strokeWidth=1;fillColor=none;align=left;verticalAlign=middle;spacingTop=-1;spacingLeft=3;spacingRight=3;rotatable=0;labelPosition=right;points=[];portConstraint=eastwest;strokeColor=inherit;" vertex="1" parent="JvgiVcvzuk2-Qw33OQM9-32">
          <mxGeometry y="70" width="160" height="8" as="geometry" />
        </mxCell>
        <mxCell id="JvgiVcvzuk2-Qw33OQM9-35" value="" style="endArrow=diamondThin;endFill=1;endSize=24;html=1;rounded=0;exitX=0;exitY=0.5;exitDx=0;exitDy=0;entryX=1;entryY=0.5;entryDx=0;entryDy=0;" edge="1" parent="sygj7q8nY9JdKc7Y1mPy-1" source="JvgiVcvzuk2-Qw33OQM9-23" target="JvgiVcvzuk2-Qw33OQM9-33">
          <mxGeometry width="160" relative="1" as="geometry">
            <mxPoint x="400" y="410" as="sourcePoint" />
            <mxPoint x="560" y="410" as="targetPoint" />
          </mxGeometry>
        </mxCell>
      </root>
    </mxGraphModel>
  </diagram>
</mxfile>
